<svg width="1368" height="798" viewbox = "0 0 1368 798"  xmlns="http://www.w3.org/2000/svg">

<!--
<json>
{
    "svgwidth": 1368,
    "svgheight": 798,
    "unit": 100,
    "x0": 684,
    "y0": 399,
    "x0rel": 0,
    "y0rel": 0,
    "glyph": "0336,0332,0337,0226,0333,0226,0336,0332,0337,0333,0333,0336,0333,0336,0332,0337,0337,0222,0222,0225,0222,0222,0222,0222,0225,0222,0222,0222,0222,0225,0222,0222,0222,0222,0225,0222,0222,",
    "table": [
        "0220:0304,0313,0210,0210,0336,0333,0331,0337,0204,0336,0330,0332,0337,0211,0211,",
        "0221:0304,0313,0330,0220,",
        "0222:0313,0304,0336,0334,0336,0336,0362,0203,0335,0337,0337,0203,0203,0335,0336,0203,0335,0337,0203,0203,0335,0336,0336,0203,0363,0335,0337,0337,0330,0330,0337,",
        "0223:0304,0313,0334,0336,0336,0336,0362,0203,0335,0337,0337,0203,0336,0203,0334,0336,0203,0335,0310,0350,0335,0337,0203,0203,0335,0335,0203,0203,0335,0335,0335,0336,0203,0313,0304,0334,0337,0337,0203,0336,0203,0335,0336,0203,0363,0335,0337,0337,0337,0330,",
        "0224:0304,0313,0336,0336,0336,0333,0337,0350,0334,0334,0362,0203,0331,0335,0345,0333,0334,0334,0334,0203,0363,0335,0335,0335,0335,0336,0330,0335,0335,0304,0337,0337,0337,",
        "0225:0313,0304,0336,0336,0336,0332,0337,0335,0362,0203,0331,0350,0334,0346,0332,0335,0335,0335,0203,0363,0334,0334,0334,0334,0304,0336,0330,0334,0337,0337,0337,",
        "0226:0321,0341,0320,",
        "0227:0333,0331,0337,0321,0200,0336,0332,0337,0320,0342,0336,0333,0330,0334,0337,0342,0335,0336,0332,",
        "0230:0312,0336,0330,0335,0337,0321,0306,0362,0203,0335,0335,0203,0203,0335,0335,0203,0203,0335,0335,0203,0354,0304,0334,0306,0335,0335,0350,0335,0320,0362,0203,0335,0335,0335,0335,0203,0335,0335,0335,0335,0203,0354,0334,0304,0312,0336,0331,0337,0313,",
        "0231:0331,0333,0334,0321,0337,0305,0311,0362,0203,0335,0350,0335,0337,0203,0335,0335,0335,0335,0203,0354,0335,0335,0335,0335,0320,0336,0201,0335,0335,0335,0335,0336,0201,0334,0334,0334,0334,0201,0335,0335,0335,0335,0336,0201,0334,0334,0334,0334,0201,0335,0335,0335,0335,0336,0201,0334,0334,0334,0334,0201,0331,0335,0335,0335,0335,0331,0334,0334,0334,0334,0337,0331,0335,0335,0335,0335,0337,0336,0331,0334,0334,0334,0334,0337,0331,0335,0335,0335,0335,0331,0334,0334,0334,0334,0337,0331,0335,0334,0334,0313,0336,0330,0304,0335,0337,0336,0330,",
        "0232:0331,0333,0334,0305,0337,0311,0335,0337,0321,0362,0203,0335,0335,0336,0203,0335,0203,0354,0335,0335,0320,0350,0335,0330,0334,0334,0334,0336,0201,0335,0335,0335,0336,0201,0334,0334,0336,0334,0201,0335,0335,0335,0336,0201,0334,0334,0334,0336,0201,0331,0335,0335,0335,0337,0331,0335,0335,0337,0330,0335,0335,0335,0337,0330,0334,0334,0334,0337,0330,0335,0335,0335,0337,0330,0335,0335,0313,0336,0304,0335,0332,0330,",
        "0233:0321,0350,0310,0362,0203,0203,0335,0335,0335,0337,0203,0203,0335,0335,0335,0336,0203,0203,0354,0335,0335,0335,0320,0337,0201,0334,0334,0334,0336,0201,0335,0335,0335,0336,0201,0334,0334,0334,0336,0201,0335,0335,0335,0336,0201,0334,0334,0334,0336,0201,0335,0335,0335,0336,0201,0331,0337,0333,0337,0331,0337,0333,0337,0331,0337,0333,0337,0331,0334,0336,0304,0313,",
        "0234:0320,0304,0313,0332,0332,0335,0321,0337,0362,0203,0334,0312,0336,0203,0306,0334,0334,0313,0337,0203,0354,0350,0335,0336,0312,0337,0331,0335,0335,0336,0313,0336,0312,0337,0320,0201,0334,0334,0334,0334,0335,0334,0201,0335,0335,0336,0335,0201,0334,0334,0334,0336,0201,0335,0335,0335,0336,0201,0331,0335,0335,0337,0333,0334,0334,0337,0331,0335,0335,0335,0337,0330,0334,0334,0331,0313,0337,0313,0334,0334,0336,0304,0304,0313,0335,",
        "0235:0332,0321,0337,0362,0203,0335,0311,0337,0203,0335,0336,0203,0335,0337,0203,0354,0335,0336,0333,0200,0350,0334,0343,0335,0330,0336,0331,0335,0343,0335,0342,0334,0335,0330,0336,0331,0335,0343,0335,0342,0330,0336,0331,0335,0343,0335,0342,0330,0336,0331,0335,0343,0335,0342,0330,0336,0331,0335,0343,0335,0342,0334,0334,0330,0337,0331,0335,0335,0331,0334,0334,0337,0331,0335,0335,0337,0337,0337,0331,0334,0334,0304,0313,0336,0333,0320,",
        "0236:0335,0331,0337,0321,0305,0362,0203,0335,0335,0203,0335,0335,0203,0335,0335,0203,0335,0335,0203,0354,0335,0350,0335,0311,0336,0362,0203,0335,0335,0203,0335,0335,0203,0335,0335,0203,0335,0335,0203,0354,0335,0335,0335,0337,0313,0336,0330,0304,0334,0320,",
        "0237:0330,0306,0335,0335,0321,0362,0203,0335,0203,0335,0203,0335,0203,0335,0203,0335,0203,0335,0354,0330,0335,0335,0350,0335,0312,0337,0362,0203,0334,0334,0334,0334,0203,0334,0334,0334,0334,0203,0354,0334,0336,0331,0334,0337,0362,0203,0334,0334,0334,0334,0203,0334,0334,0334,0334,0203,0354,0334,0336,0331,0334,0334,0330,0304,0313,0320,",
        "0240:0331,0321,0334,0336,0362,0203,0335,0337,0203,0203,0334,0336,0203,0335,0350,0310,0335,0337,0203,0203,0335,0335,0203,0203,0335,0335,0335,0336,0203,0313,0304,0334,0203,0203,0203,0203,0335,0203,0354,0335,0337,0330,0320,",
        "0241:0306,0362,0203,0335,0335,0203,0335,0335,0203,0363,0335,0335,0304,",
        "0242:0241,0333,0336,0333,0337,0241,0336,0333,0337,0333,0241,0333,0336,0333,0337,",
        "0243:0313,0304,0320,0350,0310,0335,0337,0362,0203,0335,0336,0203,0335,0335,0335,0337,0203,0335,0336,0203,0363,0335,0335,0324,0362,0203,0335,0335,0203,0335,0335,0335,0337,0203,0363,0335,0336,0331,0335,0335,0335,0337,0362,0203,0335,0335,0335,0336,0203,0335,0335,0203,0363,0320,0331,0335,0335,0304,0313,",
        "0244:0243,0243,0243,0243,",
        "0245:0321,0337,0201,0320,0336,0334,0336,0336,0306,0336,0362,0203,0335,0335,0337,0203,0335,0335,0203,0335,0335,0336,0203,0363,0304,0335,0337,0337,0337,0337,0331,0336,",
        "0246:0320,0335,0306,0350,0334,0330,0321,0337,0366,0336,0331,0335,0335,0330,0337,0336,0336,0336,0336,0336,0330,0337,0337,0337,0337,0337,0367,0336,0336,0336,0336,0336,0331,0335,0337,0320,0337,0362,0203,0334,0334,0334,0334,0203,0334,0334,0334,0334,0203,0363,0335,0337,0337,0330,0335,0335,0304,",
        "0247:0336,0336,0336,0347,0337,0337,0337,",
        "01220:0333,0200,0336,0332,0330,0220,0333,0331,0337,",
        "01221:0333,0200,0336,0332,0336,0330,0337,0220,0221,0333,0331,0331,0336,0330,0337,0337,",
        "01222:0333,0200,0336,0332,0337,0222,0336,0333,0337,0331,",
        "01223:0333,0200,0336,0332,0337,0223,0336,0333,0337,0331,",
        "01224:0333,0200,0336,0332,0336,0332,0337,0222,0224,0223,0334,0336,0333,0331,0331,0336,0336,0332,0331,0337,0337,0337,0337,",
        "01225:0333,0200,0336,0336,0333,0337,0332,0222,0225,0223,0335,0331,0333,0336,0333,0336,0336,0333,0331,0337,0337,0337,0337,",
        "01226:0333,0200,0336,0330,0332,0226,0333,0331,0337,",
        "01227:0333,0200,0336,0330,0332,0210,0227,0211,0331,0333,0337,",
        "01230:0333,0200,0336,0330,0332,0230,0331,0304,0333,0337,",
        "01231:0333,0200,0332,0336,0330,0333,0231,0333,0331,0337,",
        "01232:0333,0200,0336,0332,0330,0332,0232,0333,0331,0333,0337,",
        "01233:0333,0200,0336,0332,0337,0336,0332,0336,0336,0333,0330,0337,0337,0210,0210,0233,0211,0211,0313,0336,0336,0332,0332,0333,0331,0337,0337,0337,0333,",
        "01234:0333,0200,0336,0234,0337,",
        "01235:0333,0200,0336,0332,0336,0330,0332,0235,0333,0333,0333,0336,0336,0331,0331,0331,0331,0337,0337,0337,0337,",
        "01236:0333,0200,0336,0330,0330,0332,0336,0331,0337,0236,0333,0331,0331,0336,0330,0337,0337,",
        "01237:0333,0200,0336,0330,0332,0237,0333,0331,0337,",
        "01240:0333,0200,0336,0336,0332,0332,0240,0333,0333,0337,0337,",
        "01241:0333,0200,0336,0332,0241,0333,0337,",
        "01242:0333,0200,0336,0332,0332,0336,0330,0330,0242,0336,0331,0331,0331,0331,0332,0337,0337,0337,",
        "01243:0333,0200,0336,0332,0332,0243,0337,",
        "01244:0333,0200,0332,0336,0330,0336,0336,0243,0243,0243,0243,0331,0331,0331,0331,0337,0337,0337,",
        "01245:0333,0200,0336,0332,0336,0331,0337,0245,0333,0336,0330,0337,0337,",
        "01246:0333,0200,0330,0332,0336,0331,0336,0332,0337,0246,0333,0333,0336,0333,0331,0331,0337,0337,",
        "01247:0333,0200,0336,0330,0332,0337,0247,0336,0333,0331,0337,"
    ]
}
</json>
-->
    <circle cx="634" cy = "399" r = "100" stroke = "black" stroke-width = "6" fill = "none" />
    <circle cx="734" cy = "399" r = "100" stroke = "black" stroke-width = "6" fill = "none" />
	<path d = "M909 399 L897 399 L897 349 L897 299 L922 299 L922 349 L922 399 L909 399 Z" stroke = "black" stroke-width = "1" fill = "black" />	<path d = "M909 299 L897 299 L897 249 L897 199 L922 199 L922 249 L922 299 L909 299 Z" stroke = "black" stroke-width = "1" fill = "black" />	<path d = "M897 199 L922 199 M896.5 174           A25 25 0 0 1 921.5 199L897 199 Z" stroke = "black" stroke-width = "1" fill = "black" />	<path d = "M897 187 L897 199 L847 199 L797 199 L797 174 L847 174 L897 174 L897 187 Z" stroke = "black" stroke-width = "1" fill = "black" />	<path d = "M797 187 L797 199 L747 199 L697 199 L696 174 L746 174 L796 174 L796 187 Z" stroke = "black" stroke-width = "1" fill = "black" />	<path d = "M696 187 L696 199 L646 199 L596 199 L597 174 L647 174 L697 174 L696 187 Z" stroke = "black" stroke-width = "1" fill = "black" />	<path d = "M596 186 L596 199 L546 199 L496 199 L497 174 L547 174 L597 174 L596 186 Z" stroke = "black" stroke-width = "1" fill = "black" />	<path d = "M496 199 L497 174 M471.4999999999996 198.99999999999758           A25 25 0 0 1 496.50000000000006 173.99999999999818L496 199 Z" stroke = "black" stroke-width = "1" fill = "black" />	<path d = "M484 199 L496 199 L496 249 L496 299 L471 299 L471 249 L471 199 L484 199 Z" stroke = "black" stroke-width = "1" fill = "black" />	<path d = "M484 299 L496 299 L496 349 L496 399 L471 399 L471 349 L471 299 L484 299 Z" stroke = "black" stroke-width = "1" fill = "black" />	<path d = "M484 399 L496 399 L496 449 L496 499 L471 499 L471 449 L471 399 L484 399 Z" stroke = "black" stroke-width = "1" fill = "black" />	<path d = "M484 499 L496 499 L496 549 L496 599 L471 599 L471 549 L471 499 L484 499 Z" stroke = "black" stroke-width = "1" fill = "black" />	<path d = "M496 599 L471 599 M496.4999999999841 623.9999999999982           A25 25 0 0 1 471.4999999999855 598.9999999999969L496 599 Z" stroke = "black" stroke-width = "1" fill = "black" />	<path d = "M496 611 L496 599 L546 599 L596 599 L596 624 L546 624 L496 624 L496 611 Z" stroke = "black" stroke-width = "1" fill = "black" />	<path d = "M596 612 L596 599 L646 599 L696 599 L696 624 L646 624 L596 624 L596 612 Z" stroke = "black" stroke-width = "1" fill = "black" />	<path d = "M696 612 L696 599 L746 599 L796 599 L796 624 L746 624 L696 624 L696 612 Z" stroke = "black" stroke-width = "1" fill = "black" />	<path d = "M796 612 L796 599 L846 599 L896 599 L896 624 L846 624 L796 624 L796 612 Z" stroke = "black" stroke-width = "1" fill = "black" />	<path d = "M896 599 L896 624 M921.4999999999845 599.0000000000144           A25 25 0 0 1 896.4999999999845 624.0000000000143L896 599 Z" stroke = "black" stroke-width = "1" fill = "black" />	<path d = "M909 599 L896 599 L896 549 L896 499 L921 499 L921 549 L921 599 L909 599 Z" stroke = "black" stroke-width = "1" fill = "black" />	<path d = "M909 499 L896 499 L896 449 L896 399 L921 399 L921 449 L921 499 L909 499 Z" stroke = "black" stroke-width = "1" fill = "black" /></svg>