<svg width="250" height="250" viewbox = "0 0 250 250"  xmlns="http://www.w3.org/2000/svg">

<!--
<json>
{
    "imgurl": "",
    "imgw": 4.743971328437736,
    "imgleft": -2.2873205904167726,
    "imgtop": -3.171985664218851,
    "imgangle": 0,
    "svgwidth": 250,
    "svgheight": 250,
    "unit": 100,
    "x0": 684,
    "y0": 399,
    "x0rel": 0,
    "y0rel": 0,
    "glyph": "0336,0331,0337,0243,",
    "table": []
}
</json>
-->
	<path d = "M25 175 L25 125 L25 75 M25 75           A50 50 0 0 1 75 25L125 25 L175 25 M175 25           A50 50 0 0 1 225 75L225 125 L225 175 M225 175           A50 50 0 0 1 175 225L125 225 L75 225 M74.99999999999999 225           A50 50 0 0 1 24.999999999999986 175" stroke = "black" stroke-width = "6" fill = "none" />	<path d = "M153 78 L153 88 L144 88 L134 88 L134 97 L125 88 L116 78 L125 69 L134 59 L134 69 L144 69 L153 69 L153 78 Z" stroke = "black" stroke-width = "6" fill = "black" />	<path d = "M153 78 L153 69 L162 69 L172 69 L172 59 L181 69 L191 78 L181 88 L172 97 L172 88 L162 88 L153 88 L153 78 Z" stroke = "black" stroke-width = "6" fill = "black" />	<path d = "M78 153 L88 153 L88 162 L88 172 L97 172 L88 181 L78 191 L69 181 L59 172 L69 172 L69 162 L69 153 L78 153 Z" stroke = "black" stroke-width = "6" fill = "black" />	<path d = "M78 153 L69 153 L69 144 L69 134 L59 134 L69 125 L78 116 L88 125 L97 134 L88 134 L88 144 L88 153 L78 153 Z" stroke = "black" stroke-width = "6" fill = "black" />	<path d = "M97 97 L97 59 L59 59 L59 97 L97 97 Z" stroke = "black" stroke-width = "6" fill = "none" />	<path d = "M200 200 L200 50 L50 50 L50 200 L200 200 Z" stroke = "black" stroke-width = "6" fill = "none" /></svg>