<svg width="200" height="200" viewbox="0 0 200 200" xmlns="http://www.w3.org/2000/svg">

<!--
<json>
{
    "imgurl": "",
    "imgw": 4.743971328437736,
    "imgleft": -2.2873205904167726,
    "imgtop": -3.171985664218851,
    "imgangle": 0,
    "svgwidth": 200,
    "svgheight": 200,
    "unit": 90.90909090909092,
    "x0": 684,
    "y0": 399,
    "x0rel": 0,
    "y0rel": 0,
    "glyph": "0336,0331,0337,0253,",
    "table": []
}
</json>
-->
	<path d="M9 145 L9 100 L9 55 M9.090909090909086 54.54545454545453           A45.45454545454546 45.45454545454546 0 0 1 54.54545454545455 9.09090909090908L100 9 L145 9 M145.45454545454547 9.09090909090908           A45.45454545454546 45.45454545454546 0 0 1 190.90909090909093 54.54545454545454L191 100 L191 145 M190.90909090909093 145.45454545454547           A45.45454545454546 45.45454545454546 0 0 1 145.45454545454547 190.90909090909093L100 191 L55 191 M54.54545454545453 190.90909090909093           A45.45454545454546 45.45454545454546 0 0 1 9.090909090909072 145.45454545454547" stroke="black" stroke-width="10" fill="none"/>	<path d="M100 32 L89 32 L94 42 L100 52 L106 42 L111 32 L100 32 Z" stroke="black" stroke-width="10" fill="black"/>	<path d="M100 77 L89 77 L94 87 L100 97 L106 87 L111 77 L100 77 Z" stroke="black" stroke-width="10" fill="black"/>	<path d="M100 123 L89 123 L94 133 L100 142 L106 133 L111 123 L100 123 Z" stroke="black" stroke-width="10" fill="black"/></svg>