<svg width="420" height="420" viewbox = "0 0 420 420"  xmlns="http://www.w3.org/2000/svg">

<!--
<json>
{
    "imgurl": "",
    "imgw": 4.743971328437736,
    "imgleft": -2.2873205904167726,
    "imgtop": -3.171985664218851,
    "imgangle": 0,
    "svgwidth": 420,
    "svgheight": 420,
    "unit": 100,
    "x0": 684,
    "y0": 399,
    "x0rel": 0,
    "y0rel": 0,
    "glyph": "0321,0336,0332,0332,0332,0332,0336,0333,0337,0337,0362,0203,0336,0336,0203,0335,0337,0337,0203,0203,0203,0336,0203,0335,0203,0203,0203,0203,0203,0335,0203,0203,0203,0203,0203,0203,0203,0363,0335,0300,0332,0332,0336,0336,0333,0330,0337,0337,0251,",
    "table": []
}
</json>
-->
	<path d = "M35 210 L35 110 L35 85 L135 85 L235 85 L335 85 L385 85 L385 135 L385 185 L385 235 L385 285 L385 335 L335 335 L285 335 L235 335 L185 335 L135 335 L85 335 L35 335 Z" stroke = "white" stroke-width = "6" fill = "white" />	<path d = "M35 385 L85 335 L135 335 L85 385 L35 385 Z" stroke = "black" stroke-width = "2" fill = "black" />	<path d = "M85 385 L135 335 L185 335 L135 385 L85 385 Z" stroke = "yellow" stroke-width = "1" fill = "yellow" />	<path d = "M135 385 L185 335 L235 335 L185 385 L135 385 Z" stroke = "black" stroke-width = "2" fill = "black" />	<path d = "M185 385 L235 335 L285 335 L235 385 L185 385 Z" stroke = "yellow" stroke-width = "1" fill = "yellow" />	<path d = "M235 385 L285 335 L335 335 L285 385 L235 385 Z" stroke = "black" stroke-width = "2" fill = "black" />	<path d = "M285 385 L335 335 L385 335 L335 385 L285 385 Z" stroke = "yellow" stroke-width = "1" fill = "yellow" />	<path d = "M335 385 L385 335 L385 385 L335 385 Z" stroke = "black" stroke-width = "2" fill = "black" />	<path d = "M35 385 L35 335 L85 335 L35 385 Z" stroke = "yellow" stroke-width = "1" fill = "yellow" />	<path d = "M35 85 L85 35 L135 35 L85 85 L35 85 Z" stroke = "black" stroke-width = "2" fill = "black" />	<path d = "M85 85 L135 35 L185 35 L135 85 L85 85 Z" stroke = "yellow" stroke-width = "1" fill = "yellow" />	<path d = "M135 85 L185 35 L235 35 L185 85 L135 85 Z" stroke = "black" stroke-width = "2" fill = "black" />	<path d = "M185 85 L235 35 L285 35 L235 85 L185 85 Z" stroke = "yellow" stroke-width = "1" fill = "yellow" />	<path d = "M235 85 L285 35 L335 35 L285 85 L235 85 Z" stroke = "black" stroke-width = "2" fill = "black" />	<path d = "M285 85 L335 35 L385 35 L335 85 L285 85 Z" stroke = "yellow" stroke-width = "1" fill = "yellow" />	<path d = "M335 85 L385 35 L385 85 L335 85 Z" stroke = "black" stroke-width = "2" fill = "black" />	<path d = "M35 85 L35 35 L85 35 L35 85 Z" stroke = "yellow" stroke-width = "1" fill = "yellow" />	<path d = "M185 210 L185 198 L185 185 M185.0000000000149 185.00000000000284           A12.5 12.5 0 0 1 197.50000000001242 172.50000000000045L210 172 L223 172 M222.50000000001256 172.4999999999954           A12.5 12.5 0 0 1 235.00000000001504 184.99999999999287L235 197 L235 210 M235.00000000002026 209.999999999993           A12.5 12.5 0 0 1 222.50000000002288 222.49999999999554L210 222 L198 223 M197.50000000002277 222.50000000000088           A12.5 12.5 0 0 1 185.00000000002015 210.00000000000355" stroke = "black" stroke-width = "2" fill = "none" />	<path d = "M210 235 L216 235 L216 241 L216 247 L223 247 L216 254 L210 260 L204 254 L198 248 L204 247 L204 241 L204 235 L210 235 Z" stroke = "black" stroke-width = "2" fill = "black" />	<path d = "M235 285 L235 297 L235 310 M235.00000000004408 309.9999999999919           A12.5 12.5 0 0 1 222.50000000004724 322.499999999995L210 322 L198 323 M197.50000000004712 322.50000000000136           A12.5 12.5 0 0 1 185.00000000004397 310.00000000000455L185 298 L185 285 M185.00000000003743 285.0000000000044           A12.5 12.5 0 0 1 197.50000000003416 272.5000000000012L210 272 L223 272 M222.5000000000343 272.4999999999945           A12.5 12.5 0 0 1 235.00000000003757 284.99999999999113" stroke = "black" stroke-width = "2" fill = "none" />	<path d = "M260 160 L264 164 L260 169 L256 173 L260 178 L251 178 L242 178 L242 169 L242 160 L247 164 L251 160 L256 156 L260 160 Z" stroke = "black" stroke-width = "2" fill = "black" />	<path d = "M160 160 L164 156 L169 160 L173 164 L178 160 L178 169 L178 178 L169 178 L160 178 L164 173 L160 169 L156 164 L160 160 Z" stroke = "black" stroke-width = "2" fill = "black" />	<path d = "M160 110 L160 123 L160 135 M159.99999999999523 135.00000000001512           A12.5 12.5 0 0 1 147.49999999999918 147.500000000019L135 148 L122 148 M122.49999999999905 147.50000000002703           A12.5 12.5 0 0 1 109.9999999999951 135.00000000003104L110 123 L110 110 M109.99999999998694 110.00000000003091           A12.5 12.5 0 0 1 122.49999999998286 97.50000000002689L135 98 L147 98 M147.49999999998298 97.50000000001859           A12.5 12.5 0 0 1 159.99999999998707 110.00000000001444" stroke = "black" stroke-width = "2" fill = "none" />	<path d = "M310 110 L310 122 L310 135 M309.99999999999545 134.99999999996507           A12.5 12.5 0 0 1 297.49999999999966 147.49999999996922L285 147 L272 147 M272.4999999999995 147.4999999999778           A12.5 12.5 0 0 1 259.9999999999953 134.9999999999821L260 122 L260 110 M259.9999999999865 109.99999999998197           A12.5 12.5 0 0 1 272.49999999998215 97.49999999997767L285 97 L297 97 M297.49999999998226 97.49999999996884           A12.5 12.5 0 0 1 309.99999999998664 109.99999999996442" stroke = "black" stroke-width = "2" fill = "none" />	<path d = "M385 385 L385 185 L385 85 L385 35 L335 35 L285 35 L235 35 L185 35 L135 35 L85 35 L35 35 L35 85 L35 135 L35 185 L35 235 L35 285 L35 335 L35 385 L85 385 L135 385 L185 385 L235 385 L285 385 L335 385 L385 385 L385 410 L285 410 L185 410 L85 410 L35 410 L10 410 L10 310 L10 210 L10 110 L10 10 L110 10 L210 10 L310 10 L410 10 L410 110 L410 210 L410 310 L410 410 L385 410 Z" stroke = "blue" stroke-width = "1" fill = "blue" /></svg>