<svg width="400" height="400" viewbox = "0 0 400 400"  xmlns="http://www.w3.org/2000/svg">

<!--
<topfunctions>






function YofX(){
//foobar foobar
    X = plotparams.g*(x - plotparams.x0) - funcparams.X0;

    Y = Math.sin(X);

    y = plotparams.y0 - plotparams.G*(Y - funcparams.Y0);
}





function plotfunction(){
    
    /*plot one function:*/
    currentStroke = "blue";
    currentLineWidth = 4;
    ctx.strokeStyle = currentStroke;
    ctx.lineWidth = currentLineWidth;
    ctx.beginPath();	
    x = 0;
    intx = x;
    YofX();
    currentSVG += "	<path d = \"M";
    currentSVG += Math.round(x).toString() + " ";
    currentSVG += Math.round(y).toString() + " ";
    for(x = 1;x < plotparams.plotwidth;x++){
        ctx.moveTo(x-1,y);
        YofX();
        ctx.lineTo(x,y);
        currentSVG += "L" + x + " " + y + " ";
    }
    ctx.stroke();
    currentSVG += "\""+ " stroke = \"" + currentStroke + "\" stroke-width = \"" + currentLineWidth.toString() + "\" fill = \"" + "none" + "\" "+"/>";
    /*finish plot one function*/
    
    

}





























</topfunctions>
-->

<!--
<imgurl>

</imgurl>
-->

<!--
<currentjson>
{
    "constants": {},
    "imgurl": "",
    "plotparams": {
        "G": 97.01723378487247,
        "g": 0.06303940863128471,
        "duration": 450.78888054094654,
        "plotwidth": 400,
        "plotheight": 400,
        "x0": 0,
        "y0": 200.00000000000003
    },
    "funcparams": {
        "phi": 0.2688139066614501,
        "T": 1.4465183912692552,
        "X0": 0,
        "Y0": 0
    }
}
</currentjson>
-->

<!--
<equation>
<h2>Sine</h2>
<p style="color:blue">

</p><p class="bigeq">
$$
Y = \sin{X}
$$
</p>
<p></p>

$$
X = g(x - x_0) - X_0
$$
$$
Y = f(X)
$$
    
$$
y = y_0 - G(Y - Y_0)
$$


<p>
    X and Y, and $X_0$ and $Y_0$ in physical units of the System. x and y and x0 and y0 in pixels.  G is in pixels per Y unit and g is in X units per pixel. 
</p>






</equation>
-->
	<path d = "M0 200 L1 193.8881408871879 L2 187.80056205869468 L3 181.76144734173917 L4 175.7947880325302 L5 169.9242875872155 L6 164.1732674563187 L7 158.56457443675131 L8 153.12048990945794 L9 147.86264132326212 L10 142.8119162765562 L11 137.9883795381587 L12 133.41119333698725 L13 129.09854123720675 L14 125.06755590127202 L15 121.33425102783605 L16 117.91345773491105 L17 114.81876564101006 L18 112.06246887833287 L19 109.65551725246725 L20 107.60747274263085 L21 105.92647151526317 L22 104.61919160187438 L23 103.6908263695555 L24 103.14506388954253 L25 102.98407228579592 L26 103.20849112180032 L27 103.81742885980199 L28 104.80846640257725 L29 106.17766670366198 L30 107.91959040786391 L31 110.02731745992334 L32 112.49247459547897 L33 115.30526860512637 L34 118.4545252394229 L35 121.92773360028298 L36 125.71109584241206 L37 129.78958198733312 L38 134.14698963224822 L39 138.7660083165334 L40 143.62828829016024 L41 148.71451341085208 L42 154.00447788037948 L43 159.47716651514833 L44 165.11083823219377 L45 170.88311241891904 L46 176.77105784346276 L47 182.751283752484 L48 188.80003279446623 L49 194.89327539938793 L50 201.0068052398222 L51 207.11633539423207 L52 213.19759483043794 L53 219.22642482596234 L54 225.17887494220702 L55 231.03129817119154 L56 236.76044487686704 L57 242.3435551578106 L58 247.75844926437435 L59 252.9836157110941 L60 257.9982967343176 L61 262.7825707555585 L62 267.31743152297906 L63 271.5848636165987 L64 275.5679140172733 L65 279.25075945512725 L66 282.61876926988447 L67 285.6585635333789 L68 288.35806620334137 L69 290.70655309730375 L70 292.69469449603446 L71 294.31459220725907 L72 295.5598109424229 L73 296.42540388184807 L74 296.90793232672183 L75 297.00547935984815 L76 296.7176574608907 L77 296.04561004585617 L78 294.99200692470106 L79 293.56103369510845 L80 291.7583751145679 L81 289.59119251681733 L82 287.06809536236176 L83 284.19910703609 L84 280.9956250278632 L85 277.47037565426245 L86 273.63736350137316 L87 269.51181578944886 L88 265.1101218804772 L89 260.4497681689614 L90 255.54926861457443 L91 250.42809119265576 L92 245.10658055473542 L93 239.60587720633075 L94 233.94783352309167 L95 228.1549269389353 L96 222.25017065104092 L97 216.25702219644566 L98 210.1992902634321 L99 204.10104010791417 L100 197.98649795057082 L101 191.87995473452077 L102 185.80566962587957 L103 179.78777364055395 L104 173.85017378013373 L105 168.0164580577129 L106 162.30980179094232 L107 156.7528755345764 L108 151.36775501826665 L109 146.17583344738898 L110 141.19773651530028 L111 136.45324046465407 L112 131.96119352328623 L113 127.73944102678078 L114 123.80475452517643 L115 120.17276515544812 L116 116.85790154445279 L117 113.8733324890274 L118 111.23091464095309 L119 108.94114540461298 L120 107.01312123446674 L121 105.4545014980097 L122 104.27147804777769 L123 103.46875062327673 L124 103.04950818055727 L125 103.01541622360425 L126 103.36661018787072 L127 104.10169490223997 L128 105.2177501315538 L129 106.71034217768806 L130 108.57354149308885 L131 110.79994623679646 L132 113.38071167937788 L133 116.30558533995125 L134 119.56294771571639 L135 123.13985844218615 L136 127.02210770074103 L137 131.19427266928136 L138 135.63977879172006 L139 140.34096562291234 L140 145.2791569874439 L141 150.43473517356168 L142 155.78721886749884 L143 161.3153445185906 L144 166.9971508119436 L145 172.81006591308014 L146 178.73099713796196 L147 184.7364226921695 L148 190.80248511478607 L149 196.90508605576787 L150 203.01998201028366 L151 209.1228806297015 L152 215.18953722661718 L153 221.19585109053983 L154 227.11796123160804 L155 232.9323411719797 L156 238.61589240832132 L157 244.14603617410498 L158 249.50080313717166 L159 254.65892067622505 L160 259.5998973895349 L161 264.3041045001287 L162 268.75285383407584 L163 272.9284720620833 L164 276.814370909469 L165 280.3951130555899 L166 283.6564734609324 L167 286.5854958782325 L168 289.17054432312693 L169 291.40134929985953 L170 293.26904859840624 L171 294.7662225009442 L172 295.88692325780204 L173 296.6266987157953 L174 296.9826100050775 L175 296.9532432142452 L176 296.5387150073147 L177 295.74067216025645 L178 294.5622850189289 L179 293.00823490439996 L180 291.0846955156915 L181 288.7993084038268 L182 286.1611526146131 L183 283.18070862076087 L184 279.86981668662014 L185 276.24162983094135 L186 272.31056157451945 L187 268.0922286803034 L188 263.60338911344473 L189 258.8618754677474 L190 253.8865241229929 L191 248.69710041457367 L192 243.31422011271064 L193 237.75926752318892 L194 232.05431053497034 L195 226.22201295216837 L196 220.2855444586595 L197 214.26848857301195 L198 208.19474895939234 L199 202.08845446664634 L200 195.97386327279807 L201 189.87526651577153 L202 183.8168917931723 L203 177.82280691449338 L204 171.91682428810364 L205 166.12240632285489 L206 160.46257222011656 L207 154.95980652651784 L208 149.63596981068693 L209 144.51221181883693 L210 139.60888745420237 L211 134.9454759141083 L212 130.54050330591411 L213 126.41146904925151 L214 122.57477635693385 L215 119.04566707071423 L216 115.83816111076428 L217 112.96500077942193 L218 110.43760014046902 L219 108.26599967503707 L220 106.45882639427849 L221 105.02325956726031 L222 103.96500220023239 L223 103.288258380573 L224 102.99571657541615 L225 103.08853895130942 L226 103.56635675733163 L227 104.42727179001167 L228 105.66786393422878 L229 107.28320475013682 L230 109.26687705213675 L231 111.6110004021164 L232 114.30626241568267 L233 117.3419557570158 L234 120.70602067538 L235 124.38509291430644 L236 128.36455680312227 L237 132.62860331991243 L238 137.16029289524866 L239 141.9416227071903 L240 146.9535982002161 L241 152.1763085439674 L242 157.58900573203252 L243 163.17018700653804 L244 168.89768028110578 L245 174.7487322228177 L246 180.70009864327125 L247 186.72813683963116 L248 192.80889951884114 L249 198.91822993186597 L250 205.0318578400287 L251 211.12549593220382 L252 217.1749363098314 L253 223.1561466564545 L254 229.04536570972925 L255 234.81919765663255 L256 240.45470507686449 L257 245.92950006522025 L258 251.22183317092723 L259 256.3106798006254 L260 261.17582374174503 L261 265.7979374744651 L262 270.15865895320957 L263 274.24066455264887 L264 278.0277378884195 L265 281.5048342391643 L266 284.65814031396076 L267 287.4751291277088 L268 289.9446097664726 L269 292.05677184507726 L270 293.80322448034815 L271 295.17702962516233 L272 296.17272963088953 L273 296.7863689287267 L274 297.01550974379296 L275 296.85924177955883 L276 296.3181858341369 L277 295.3944913340674 L278 294.0918277953964 L279 292.41537024596846 L280 290.37177866684624 L281 287.9691715345285 L282 285.2170935690759 L283 282.126477816266 L284 278.7096022144178 L285 274.980040818424 L286 270.95260987476655 L287 266.64330896173817 L288 262.06925742869754 L289 257.2486263868662 L290 252.2005665218433 L291 246.94513201460984 L292 241.50320087326497 L293 235.89639199198072 L294 230.14697926667728 L295 224.27780310860504 L296 218.31217970735565 L297 212.27380840377654 L298 206.18667754075423 L299 200.0749691658966 L300 193.96296296469387 L301 187.87493980579524 L302 181.83508528158978 L303 175.86739362728224 L304 169.99557240016696 L305 164.24294829777358 L306 158.6323744890322 L307 153.18613982660744 L308 147.92588030105938 L309 142.8724930886011 L310 138.04605353390772 L311 133.46573539777302 L312 129.1497346864469 L313 125.11519736525022 L314 121.37815124363398 L315 117.9534423022848 L316 114.85467571522085 L317 112.09416180118183 L318 109.68286711902718 L319 107.63037090142193 L320 105.94482699988798 L321 104.63293149239524 L322 103.69989608218005 L323 103.14942739346625 L324 102.98371224633979 L325 103.20340896927551 L326 103.8076447838277 L327 104.7940192718745 L328 106.15861391164157 L329 107.89600764462261 L330 109.99929841155328 L331 112.46013057188574 L332 115.26872809783362 L333 118.4139334111199 L334 121.88325170814433 L335 125.66290059747928 L336 129.73786485250264 L337 134.09195606165702 L338 138.7078769393604 L339 143.5672900420896 L340 148.6508906166463 L341 153.93848329120675 L342 159.4090623044915 L343 165.04089495432538 L344 170.81160793408452 L345 176.6982762140385 L346 182.6775141144957 L347 188.7255682089537 L348 194.8184116881743 L349 200.93183981031825 L350 207.04156605794012 L351 213.12331861984973 L352 219.15293681455384 L353 225.10646707221323 L354 230.96025809382263 L355 236.69105480957057 L356 242.276090763119 L357 247.69317855479477 L358 252.92079798438837 L359 257.93818154340147 L360 262.72539691711654 L361 267.2634261687277 L362 271.53424129097226 L363 275.52087582511376 L364 279.2074922627638 L365 282.5794449627803 L366 285.62333833328876 L367 288.3270800476981 L368 290.6799290832952 L369 292.67253839158116 L370 294.29699203083567 L371 295.546836613391 L372 296.41710694269113 L373 296.9043457382851 L374 297.0066173703963 L375 296.7235155495049 L376 296.05616494039367 L377 295.00721669424775 L378 293.58083791655525 L379 291.7826951126512 L380 289.619931676668 L381 287.1011395133224 L382 284.2363249052755 L383 281.0368687616613 L384 277.5154814057057 L385 273.68615208104484 L386 269.5640933773401 L387 265.165680795967 L388 260.50838769585823 L389 255.61071587794595 L390 250.49212208395852 L391 245.17294070157328 L392 239.67430298298825 L393 234.0180530978262 L394 228.2266613538706 L395 222.32313493036895 L396 216.33092647853567 L397 210.27384095235087 L398 204.17594103977947 L399 198.0614515701068 " stroke = "blue" stroke-width = "4" fill = "none" /></svg>